<svg width="116" height="27" viewBox="0 0 116 27" fill="none" xmlns="http://www.w3.org/2000/svg">
<path d="M16.76 10.384C16.248 9.44533 15.544 8.73067 14.648 8.24C13.752 7.74933 12.7067 7.504 11.512 7.504C10.1893 7.504 9.016 7.80267 7.992 8.4C6.968 8.99733 6.168 9.85067 5.592 10.96C5.016 12.0693 4.728 13.3493 4.728 14.8C4.728 16.2933 5.016 17.5947 5.592 18.704C6.18933 19.8133 7.01067 20.6667 8.056 21.264C9.10133 21.8613 10.3173 22.16 11.704 22.16C13.4107 22.16 14.808 21.712 15.896 20.816C16.984 19.8987 17.6987 18.6293 18.04 17.008H10.36V13.584H22.456V17.488C22.1573 19.0453 21.5173 20.4853 20.536 21.808C19.5547 23.1307 18.2853 24.1973 16.728 25.008C15.192 25.7973 13.464 26.192 11.544 26.192C9.38933 26.192 7.43733 25.712 5.688 24.752C3.96 23.7707 2.59467 22.416 1.592 20.688C0.610667 18.96 0.12 16.9973 0.12 14.8C0.12 12.6027 0.610667 10.64 1.592 8.912C2.59467 7.16267 3.96 5.808 5.688 4.848C7.43733 3.86667 9.37867 3.376 11.512 3.376C14.0293 3.376 16.216 3.99467 18.072 5.232C19.928 6.448 21.208 8.16533 21.912 10.384H16.76ZM27.7225 6.16C26.9332 6.16 26.2718 5.91467 25.7385 5.424C25.2265 4.912 24.9705 4.28267 24.9705 3.536C24.9705 2.78933 25.2265 2.17067 25.7385 1.68C26.2718 1.168 26.9332 0.911999 27.7225 0.911999C28.5118 0.911999 29.1625 1.168 29.6745 1.68C30.2078 2.17067 30.4745 2.78933 30.4745 3.536C30.4745 4.28267 30.2078 4.912 29.6745 5.424C29.1625 5.91467 28.5118 6.16 27.7225 6.16ZM29.9305 8.272V26H25.4505V8.272H29.9305ZM42.1648 11.952H39.0608V26H34.5168V11.952H32.5008V8.272H34.5168V7.376C34.5168 5.2 35.1354 3.6 36.3728 2.576C37.6101 1.552 39.4768 1.072 41.9728 1.136V4.912C40.8848 4.89067 40.1274 5.072 39.7008 5.456C39.2741 5.84 39.0608 6.53333 39.0608 7.536V8.272H42.1648V11.952ZM49.964 11.952V20.528C49.964 21.1253 50.1027 21.5627 50.38 21.84C50.6787 22.096 51.1693 22.224 51.852 22.224H53.932V26H51.116C47.34 26 45.452 24.1653 45.452 20.496V11.952H43.34V8.272H45.452V3.888H49.964V8.272H53.932V11.952H49.964Z" fill="#2302F5"/>
<path d="M78.8503 8.016C81.0263 8.016 82.7756 8.688 84.0983 10.032C85.4423 11.3547 86.1143 13.2107 86.1143 15.6V26H81.6343V16.208C81.6343 14.8213 81.2823 13.7653 80.5783 13.04C79.8743 12.2933 78.9143 11.92 77.6983 11.92C76.4823 11.92 75.5116 12.2933 74.7863 13.04C74.0823 13.7653 73.7303 14.8213 73.7303 16.208V26H69.2503V16.208C69.2503 14.8213 68.8983 13.7653 68.1943 13.04C67.4903 12.2933 66.5303 11.92 65.3143 11.92C64.0769 11.92 63.0956 12.2933 62.3703 13.04C61.6663 13.7653 61.3143 14.8213 61.3143 16.208V26H56.8343V8.272H61.3143V10.416C61.8903 9.66933 62.6263 9.08267 63.5223 8.656C64.4396 8.22933 65.4423 8.016 66.5303 8.016C67.9169 8.016 69.1543 8.31467 70.2423 8.912C71.3303 9.488 72.1729 10.32 72.7703 11.408C73.3463 10.384 74.1783 9.56267 75.2663 8.944C76.3756 8.32533 77.5703 8.016 78.8503 8.016ZM92.3175 6.16C91.5282 6.16 90.8668 5.91467 90.3335 5.424C89.8215 4.912 89.5655 4.28267 89.5655 3.536C89.5655 2.78933 89.8215 2.17067 90.3335 1.68C90.8668 1.168 91.5282 0.911999 92.3175 0.911999C93.1068 0.911999 93.7575 1.168 94.2695 1.68C94.8028 2.17067 95.0695 2.78933 95.0695 3.536C95.0695 4.28267 94.8028 4.912 94.2695 5.424C93.7575 5.91467 93.1068 6.16 92.3175 6.16ZM94.5255 8.272V26H90.0455V8.272H94.5255ZM106.504 26.288C104.797 26.288 103.261 25.9147 101.896 25.168C100.53 24.4 99.4531 23.3227 98.6638 21.936C97.8958 20.5493 97.5118 18.9493 97.5118 17.136C97.5118 15.3227 97.9064 13.7227 98.6958 12.336C99.5064 10.9493 100.605 9.88267 101.992 9.136C103.378 8.368 104.925 7.984 106.632 7.984C108.338 7.984 109.885 8.368 111.272 9.136C112.658 9.88267 113.746 10.9493 114.536 12.336C115.346 13.7227 115.752 15.3227 115.752 17.136C115.752 18.9493 115.336 20.5493 114.504 21.936C113.693 23.3227 112.584 24.4 111.176 25.168C109.789 25.9147 108.232 26.288 106.504 26.288ZM106.504 22.384C107.314 22.384 108.072 22.192 108.776 21.808C109.501 21.4027 110.077 20.8053 110.504 20.016C110.93 19.2267 111.144 18.2667 111.144 17.136C111.144 15.4507 110.696 14.16 109.8 13.264C108.925 12.3467 107.848 11.888 106.568 11.888C105.288 11.888 104.21 12.3467 103.336 13.264C102.482 14.16 102.056 15.4507 102.056 17.136C102.056 18.8213 102.472 20.1227 103.304 21.04C104.157 21.936 105.224 22.384 106.504 22.384Z" fill="#333A40"/>
</svg>
