<svg width="306" height="20" viewBox="0 0 306 20" fill="none" xmlns="http://www.w3.org/2000/svg">
<path d="M9.792 1.936V3.97H6.444V14.5H3.924V3.97H0.576V1.936H9.792ZM12.7287 3.34C12.2847 3.34 11.9127 3.202 11.6127 2.926C11.3247 2.638 11.1807 2.284 11.1807 1.864C11.1807 1.444 11.3247 1.096 11.6127 0.819999C11.9127 0.531999 12.2847 0.387999 12.7287 0.387999C13.1727 0.387999 13.5387 0.531999 13.8267 0.819999C14.1267 1.096 14.2767 1.444 14.2767 1.864C14.2767 2.284 14.1267 2.638 13.8267 2.926C13.5387 3.202 13.1727 3.34 12.7287 3.34ZM13.9707 4.528V14.5H11.4507V4.528H13.9707ZM28.6644 4.384C29.8884 4.384 30.8724 4.762 31.6164 5.518C32.3724 6.262 32.7504 7.306 32.7504 8.65V14.5H30.2304V8.992C30.2304 8.212 30.0324 7.618 29.6364 7.21C29.2404 6.79 28.7004 6.58 28.0164 6.58C27.3324 6.58 26.7864 6.79 26.3784 7.21C25.9824 7.618 25.7844 8.212 25.7844 8.992V14.5H23.2644V8.992C23.2644 8.212 23.0664 7.618 22.6704 7.21C22.2744 6.79 21.7344 6.58 21.0504 6.58C20.3544 6.58 19.8024 6.79 19.3944 7.21C18.9984 7.618 18.8004 8.212 18.8004 8.992V14.5H16.2804V4.528H18.8004V5.734C19.1244 5.314 19.5384 4.984 20.0424 4.744C20.5584 4.504 21.1224 4.384 21.7344 4.384C22.5144 4.384 23.2104 4.552 23.8224 4.888C24.4344 5.212 24.9084 5.68 25.2444 6.292C25.5684 5.716 26.0364 5.254 26.6484 4.906C27.2724 4.558 27.9444 4.384 28.6644 4.384ZM44.2318 9.298C44.2318 9.658 44.2078 9.982 44.1598 10.27H36.8698C36.9298 10.99 37.1818 11.554 37.6258 11.962C38.0698 12.37 38.6158 12.574 39.2638 12.574C40.1998 12.574 40.8658 12.172 41.2618 11.368H43.9798C43.6918 12.328 43.1398 13.12 42.3238 13.744C41.5078 14.356 40.5058 14.662 39.3178 14.662C38.3578 14.662 37.4938 14.452 36.7258 14.032C35.9698 13.6 35.3758 12.994 34.9438 12.214C34.5238 11.434 34.3138 10.534 34.3138 9.514C34.3138 8.482 34.5238 7.576 34.9438 6.796C35.3638 6.016 35.9518 5.416 36.7078 4.996C37.4638 4.576 38.3338 4.366 39.3178 4.366C40.2658 4.366 41.1118 4.57 41.8558 4.978C42.6118 5.386 43.1938 5.968 43.6018 6.724C44.0218 7.468 44.2318 8.326 44.2318 9.298ZM41.6218 8.578C41.6098 7.93 41.3758 7.414 40.9198 7.03C40.4638 6.634 39.9058 6.436 39.2458 6.436C38.6218 6.436 38.0938 6.628 37.6618 7.012C37.2418 7.384 36.9838 7.906 36.8878 8.578H41.6218ZM52.9342 6.598V11.422C52.9342 11.758 53.0122 12.004 53.1682 12.16C53.3362 12.304 53.6122 12.376 53.9962 12.376H55.1662V14.5H53.5822C51.4582 14.5 50.3962 13.468 50.3962 11.404V6.598H49.2082V4.528H50.3962V2.062H52.9342V4.528H55.1662V6.598H52.9342ZM61.2267 14.662C60.2667 14.662 59.4027 14.452 58.6347 14.032C57.8667 13.6 57.2607 12.994 56.8167 12.214C56.3847 11.434 56.1687 10.534 56.1687 9.514C56.1687 8.494 56.3907 7.594 56.8347 6.814C57.2907 6.034 57.9087 5.434 58.6887 5.014C59.4687 4.582 60.3387 4.366 61.2987 4.366C62.2587 4.366 63.1287 4.582 63.9087 5.014C64.6887 5.434 65.3007 6.034 65.7447 6.814C66.2007 7.594 66.4287 8.494 66.4287 9.514C66.4287 10.534 66.1947 11.434 65.7267 12.214C65.2707 12.994 64.6467 13.6 63.8547 14.032C63.0747 14.452 62.1987 14.662 61.2267 14.662ZM61.2267 12.466C61.6827 12.466 62.1087 12.358 62.5047 12.142C62.9127 11.914 63.2367 11.578 63.4767 11.134C63.7167 10.69 63.8367 10.15 63.8367 9.514C63.8367 8.566 63.5847 7.84 63.0807 7.336C62.5887 6.82 61.9827 6.562 61.2627 6.562C60.5427 6.562 59.9367 6.82 59.4447 7.336C58.9647 7.84 58.7247 8.566 58.7247 9.514C58.7247 10.462 58.9587 11.194 59.4267 11.71C59.9067 12.214 60.5067 12.466 61.2267 12.466ZM84.5903 4.384C85.8143 4.384 86.7983 4.762 87.5423 5.518C88.2983 6.262 88.6763 7.306 88.6763 8.65V14.5H86.1563V8.992C86.1563 8.212 85.9583 7.618 85.5623 7.21C85.1663 6.79 84.6263 6.58 83.9423 6.58C83.2583 6.58 82.7123 6.79 82.3043 7.21C81.9083 7.618 81.7103 8.212 81.7103 8.992V14.5H79.1903V8.992C79.1903 8.212 78.9923 7.618 78.5963 7.21C78.2003 6.79 77.6603 6.58 76.9763 6.58C76.2803 6.58 75.7283 6.79 75.3203 7.21C74.9243 7.618 74.7263 8.212 74.7263 8.992V14.5H72.2063V4.528H74.7263V5.734C75.0503 5.314 75.4643 4.984 75.9683 4.744C76.4843 4.504 77.0483 4.384 77.6603 4.384C78.4403 4.384 79.1363 4.552 79.7483 4.888C80.3603 5.212 80.8343 5.68 81.1703 6.292C81.4943 5.716 81.9623 5.254 82.5743 4.906C83.1983 4.558 83.8703 4.384 84.5903 4.384ZM90.2396 9.478C90.2396 8.47 90.4376 7.576 90.8336 6.796C91.2416 6.016 91.7876 5.416 92.4716 4.996C93.1676 4.576 93.9416 4.366 94.7936 4.366C95.5376 4.366 96.1856 4.516 96.7376 4.816C97.3016 5.116 97.7516 5.494 98.0876 5.95V4.528H100.626V14.5H98.0876V13.042C97.7636 13.51 97.3136 13.9 96.7376 14.212C96.1736 14.512 95.5196 14.662 94.7756 14.662C93.9356 14.662 93.1676 14.446 92.4716 14.014C91.7876 13.582 91.2416 12.976 90.8336 12.196C90.4376 11.404 90.2396 10.498 90.2396 9.478ZM98.0876 9.514C98.0876 8.902 97.9676 8.38 97.7276 7.948C97.4876 7.504 97.1636 7.168 96.7556 6.94C96.3476 6.7 95.9096 6.58 95.4416 6.58C94.9736 6.58 94.5416 6.694 94.1456 6.922C93.7496 7.15 93.4256 7.486 93.1736 7.93C92.9336 8.362 92.8136 8.878 92.8136 9.478C92.8136 10.078 92.9336 10.606 93.1736 11.062C93.4256 11.506 93.7496 11.848 94.1456 12.088C94.5536 12.328 94.9856 12.448 95.4416 12.448C95.9096 12.448 96.3476 12.334 96.7556 12.106C97.1636 11.866 97.4876 11.53 97.7276 11.098C97.9676 10.654 98.0876 10.126 98.0876 9.514ZM108.811 14.5L105.427 10.252V14.5H102.907V1.18H105.427V8.758L108.775 4.528H112.051L107.659 9.532L112.087 14.5H108.811ZM122.509 9.298C122.509 9.658 122.485 9.982 122.437 10.27H115.147C115.207 10.99 115.459 11.554 115.903 11.962C116.347 12.37 116.893 12.574 117.541 12.574C118.477 12.574 119.143 12.172 119.539 11.368H122.257C121.969 12.328 121.417 13.12 120.601 13.744C119.785 14.356 118.783 14.662 117.595 14.662C116.635 14.662 115.771 14.452 115.003 14.032C114.247 13.6 113.653 12.994 113.221 12.214C112.801 11.434 112.591 10.534 112.591 9.514C112.591 8.482 112.801 7.576 113.221 6.796C113.641 6.016 114.229 5.416 114.985 4.996C115.741 4.576 116.611 4.366 117.595 4.366C118.543 4.366 119.389 4.57 120.133 4.978C120.889 5.386 121.471 5.968 121.879 6.724C122.299 7.468 122.509 8.326 122.509 9.298ZM119.899 8.578C119.887 7.93 119.653 7.414 119.197 7.03C118.741 6.634 118.183 6.436 117.523 6.436C116.899 6.436 116.371 6.628 115.939 7.012C115.519 7.384 115.261 7.906 115.165 8.578H119.899ZM140.661 4.384C141.885 4.384 142.869 4.762 143.613 5.518C144.369 6.262 144.747 7.306 144.747 8.65V14.5H142.227V8.992C142.227 8.212 142.029 7.618 141.633 7.21C141.237 6.79 140.697 6.58 140.013 6.58C139.329 6.58 138.783 6.79 138.375 7.21C137.979 7.618 137.781 8.212 137.781 8.992V14.5H135.261V8.992C135.261 8.212 135.063 7.618 134.667 7.21C134.271 6.79 133.731 6.58 133.047 6.58C132.351 6.58 131.799 6.79 131.391 7.21C130.995 7.618 130.797 8.212 130.797 8.992V14.5H128.277V4.528H130.797V5.734C131.121 5.314 131.535 4.984 132.039 4.744C132.555 4.504 133.119 4.384 133.731 4.384C134.511 4.384 135.207 4.552 135.819 4.888C136.431 5.212 136.905 5.68 137.241 6.292C137.565 5.716 138.033 5.254 138.645 4.906C139.269 4.558 139.941 4.384 140.661 4.384ZM151.386 14.662C150.426 14.662 149.562 14.452 148.794 14.032C148.026 13.6 147.42 12.994 146.976 12.214C146.544 11.434 146.328 10.534 146.328 9.514C146.328 8.494 146.55 7.594 146.994 6.814C147.45 6.034 148.068 5.434 148.848 5.014C149.628 4.582 150.498 4.366 151.458 4.366C152.418 4.366 153.288 4.582 154.068 5.014C154.848 5.434 155.46 6.034 155.904 6.814C156.36 7.594 156.588 8.494 156.588 9.514C156.588 10.534 156.354 11.434 155.886 12.214C155.43 12.994 154.806 13.6 154.014 14.032C153.234 14.452 152.358 14.662 151.386 14.662ZM151.386 12.466C151.842 12.466 152.268 12.358 152.664 12.142C153.072 11.914 153.396 11.578 153.636 11.134C153.876 10.69 153.996 10.15 153.996 9.514C153.996 8.566 153.744 7.84 153.24 7.336C152.748 6.82 152.142 6.562 151.422 6.562C150.702 6.562 150.096 6.82 149.604 7.336C149.124 7.84 148.884 8.566 148.884 9.514C148.884 10.462 149.118 11.194 149.586 11.71C150.066 12.214 150.666 12.466 151.386 12.466ZM163.783 4.384C164.971 4.384 165.931 4.762 166.663 5.518C167.395 6.262 167.761 7.306 167.761 8.65V14.5H165.241V8.992C165.241 8.2 165.043 7.594 164.647 7.174C164.251 6.742 163.711 6.526 163.027 6.526C162.331 6.526 161.779 6.742 161.371 7.174C160.975 7.594 160.777 8.2 160.777 8.992V14.5H158.257V4.528H160.777V5.77C161.113 5.338 161.539 5.002 162.055 4.762C162.583 4.51 163.159 4.384 163.783 4.384ZM179.247 9.298C179.247 9.658 179.223 9.982 179.175 10.27H171.885C171.945 10.99 172.197 11.554 172.641 11.962C173.085 12.37 173.631 12.574 174.279 12.574C175.215 12.574 175.881 12.172 176.277 11.368H178.995C178.707 12.328 178.155 13.12 177.339 13.744C176.523 14.356 175.521 14.662 174.333 14.662C173.373 14.662 172.509 14.452 171.741 14.032C170.985 13.6 170.391 12.994 169.959 12.214C169.539 11.434 169.329 10.534 169.329 9.514C169.329 8.482 169.539 7.576 169.959 6.796C170.379 6.016 170.967 5.416 171.723 4.996C172.479 4.576 173.349 4.366 174.333 4.366C175.281 4.366 176.127 4.57 176.871 4.978C177.627 5.386 178.209 5.968 178.617 6.724C179.037 7.468 179.247 8.326 179.247 9.298ZM176.637 8.578C176.625 7.93 176.391 7.414 175.935 7.03C175.479 6.634 174.921 6.436 174.261 6.436C173.637 6.436 173.109 6.628 172.677 7.012C172.257 7.384 171.999 7.906 171.903 8.578H176.637ZM190.447 4.528L184.273 19.216H181.591L183.751 14.248L179.755 4.528H182.581L185.155 11.494L187.765 4.528H190.447ZM198.254 5.986C198.578 5.506 199.022 5.116 199.586 4.816C200.162 4.516 200.816 4.366 201.548 4.366C202.4 4.366 203.168 4.576 203.852 4.996C204.548 5.416 205.094 6.016 205.49 6.796C205.898 7.564 206.102 8.458 206.102 9.478C206.102 10.498 205.898 11.404 205.49 12.196C205.094 12.976 204.548 13.582 203.852 14.014C203.168 14.446 202.4 14.662 201.548 14.662C200.804 14.662 200.15 14.518 199.586 14.23C199.034 13.93 198.59 13.546 198.254 13.078V14.5H195.734V1.18H198.254V5.986ZM203.528 9.478C203.528 8.878 203.402 8.362 203.15 7.93C202.91 7.486 202.586 7.15 202.178 6.922C201.782 6.694 201.35 6.58 200.882 6.58C200.426 6.58 199.994 6.7 199.586 6.94C199.19 7.168 198.866 7.504 198.614 7.948C198.374 8.392 198.254 8.914 198.254 9.514C198.254 10.114 198.374 10.636 198.614 11.08C198.866 11.524 199.19 11.866 199.586 12.106C199.994 12.334 200.426 12.448 200.882 12.448C201.35 12.448 201.782 12.328 202.178 12.088C202.586 11.848 202.91 11.506 203.15 11.062C203.402 10.618 203.528 10.09 203.528 9.478ZM217.293 4.528L211.119 19.216H208.437L210.597 14.248L206.601 4.528H209.427L212.001 11.494L214.611 4.528H217.293ZM226.397 14.662C225.581 14.662 224.849 14.518 224.201 14.23C223.553 13.93 223.037 13.528 222.653 13.024C222.281 12.52 222.077 11.962 222.041 11.35H224.579C224.627 11.734 224.813 12.052 225.137 12.304C225.473 12.556 225.887 12.682 226.379 12.682C226.859 12.682 227.231 12.586 227.495 12.394C227.771 12.202 227.909 11.956 227.909 11.656C227.909 11.332 227.741 11.092 227.405 10.936C227.081 10.768 226.559 10.588 225.839 10.396C225.095 10.216 224.483 10.03 224.003 9.838C223.535 9.646 223.127 9.352 222.779 8.956C222.443 8.56 222.275 8.026 222.275 7.354C222.275 6.802 222.431 6.298 222.743 5.842C223.067 5.386 223.523 5.026 224.111 4.762C224.711 4.498 225.413 4.366 226.217 4.366C227.405 4.366 228.353 4.666 229.061 5.266C229.769 5.854 230.159 6.652 230.231 7.66H227.819C227.783 7.264 227.615 6.952 227.315 6.724C227.027 6.484 226.637 6.364 226.145 6.364C225.689 6.364 225.335 6.448 225.083 6.616C224.843 6.784 224.723 7.018 224.723 7.318C224.723 7.654 224.891 7.912 225.227 8.092C225.563 8.26 226.085 8.434 226.793 8.614C227.513 8.794 228.107 8.98 228.575 9.172C229.043 9.364 229.445 9.664 229.781 10.072C230.129 10.468 230.309 10.996 230.321 11.656C230.321 12.232 230.159 12.748 229.835 13.204C229.523 13.66 229.067 14.02 228.467 14.284C227.879 14.536 227.189 14.662 226.397 14.662ZM237.825 4.384C238.581 4.384 239.253 4.552 239.841 4.888C240.429 5.212 240.885 5.698 241.209 6.346C241.545 6.982 241.713 7.75 241.713 8.65V14.5H239.193V8.992C239.193 8.2 238.995 7.594 238.599 7.174C238.203 6.742 237.663 6.526 236.979 6.526C236.283 6.526 235.731 6.742 235.323 7.174C234.927 7.594 234.729 8.2 234.729 8.992V14.5H232.209V1.18H234.729V5.77C235.053 5.338 235.485 5.002 236.025 4.762C236.565 4.51 237.165 4.384 237.825 4.384ZM248.358 14.662C247.398 14.662 246.534 14.452 245.766 14.032C244.998 13.6 244.392 12.994 243.948 12.214C243.516 11.434 243.3 10.534 243.3 9.514C243.3 8.494 243.522 7.594 243.966 6.814C244.422 6.034 245.04 5.434 245.82 5.014C246.6 4.582 247.47 4.366 248.43 4.366C249.39 4.366 250.26 4.582 251.04 5.014C251.82 5.434 252.432 6.034 252.876 6.814C253.332 7.594 253.56 8.494 253.56 9.514C253.56 10.534 253.326 11.434 252.858 12.214C252.402 12.994 251.778 13.6 250.986 14.032C250.206 14.452 249.33 14.662 248.358 14.662ZM248.358 12.466C248.814 12.466 249.24 12.358 249.636 12.142C250.044 11.914 250.368 11.578 250.608 11.134C250.848 10.69 250.968 10.15 250.968 9.514C250.968 8.566 250.716 7.84 250.212 7.336C249.72 6.82 249.114 6.562 248.394 6.562C247.674 6.562 247.068 6.82 246.576 7.336C246.096 7.84 245.856 8.566 245.856 9.514C245.856 10.462 246.09 11.194 246.558 11.71C247.038 12.214 247.638 12.466 248.358 12.466ZM257.748 5.968C258.072 5.512 258.516 5.134 259.08 4.834C259.656 4.522 260.31 4.366 261.042 4.366C261.894 4.366 262.662 4.576 263.346 4.996C264.042 5.416 264.588 6.016 264.984 6.796C265.392 7.564 265.596 8.458 265.596 9.478C265.596 10.498 265.392 11.404 264.984 12.196C264.588 12.976 264.042 13.582 263.346 14.014C262.662 14.446 261.894 14.662 261.042 14.662C260.31 14.662 259.662 14.512 259.098 14.212C258.546 13.912 258.096 13.534 257.748 13.078V19.252H255.228V4.528H257.748V5.968ZM263.022 9.478C263.022 8.878 262.896 8.362 262.644 7.93C262.404 7.486 262.08 7.15 261.672 6.922C261.276 6.694 260.844 6.58 260.376 6.58C259.92 6.58 259.488 6.7 259.08 6.94C258.684 7.168 258.36 7.504 258.108 7.948C257.868 8.392 257.748 8.914 257.748 9.514C257.748 10.114 257.868 10.636 258.108 11.08C258.36 11.524 258.684 11.866 259.08 12.106C259.488 12.334 259.92 12.448 260.376 12.448C260.844 12.448 261.276 12.328 261.672 12.088C262.08 11.848 262.404 11.506 262.644 11.062C262.896 10.618 263.022 10.09 263.022 9.478ZM269.768 5.968C270.092 5.512 270.536 5.134 271.1 4.834C271.676 4.522 272.33 4.366 273.062 4.366C273.914 4.366 274.682 4.576 275.366 4.996C276.062 5.416 276.608 6.016 277.004 6.796C277.412 7.564 277.616 8.458 277.616 9.478C277.616 10.498 277.412 11.404 277.004 12.196C276.608 12.976 276.062 13.582 275.366 14.014C274.682 14.446 273.914 14.662 273.062 14.662C272.33 14.662 271.682 14.512 271.118 14.212C270.566 13.912 270.116 13.534 269.768 13.078V19.252H267.248V4.528H269.768V5.968ZM275.042 9.478C275.042 8.878 274.916 8.362 274.664 7.93C274.424 7.486 274.1 7.15 273.692 6.922C273.296 6.694 272.864 6.58 272.396 6.58C271.94 6.58 271.508 6.7 271.1 6.94C270.704 7.168 270.38 7.504 270.128 7.948C269.888 8.392 269.768 8.914 269.768 9.514C269.768 10.114 269.888 10.636 270.128 11.08C270.38 11.524 270.704 11.866 271.1 12.106C271.508 12.334 271.94 12.448 272.396 12.448C272.864 12.448 273.296 12.328 273.692 12.088C274.1 11.848 274.424 11.506 274.664 11.062C274.916 10.618 275.042 10.09 275.042 9.478ZM280.545 3.34C280.101 3.34 279.729 3.202 279.429 2.926C279.141 2.638 278.997 2.284 278.997 1.864C278.997 1.444 279.141 1.096 279.429 0.819999C279.729 0.531999 280.101 0.387999 280.545 0.387999C280.989 0.387999 281.355 0.531999 281.643 0.819999C281.943 1.096 282.093 1.444 282.093 1.864C282.093 2.284 281.943 2.638 281.643 2.926C281.355 3.202 280.989 3.34 280.545 3.34ZM281.787 4.528V14.5H279.267V4.528H281.787ZM289.623 4.384C290.811 4.384 291.771 4.762 292.503 5.518C293.235 6.262 293.601 7.306 293.601 8.65V14.5H291.081V8.992C291.081 8.2 290.883 7.594 290.487 7.174C290.091 6.742 289.551 6.526 288.867 6.526C288.171 6.526 287.619 6.742 287.211 7.174C286.815 7.594 286.617 8.2 286.617 8.992V14.5H284.097V4.528H286.617V5.77C286.953 5.338 287.379 5.002 287.895 4.762C288.423 4.51 288.999 4.384 289.623 4.384ZM299.723 4.366C300.467 4.366 301.121 4.516 301.685 4.816C302.249 5.104 302.693 5.482 303.017 5.95V4.528H305.555V14.572C305.555 15.496 305.369 16.318 304.997 17.038C304.625 17.77 304.067 18.346 303.323 18.766C302.579 19.198 301.679 19.414 300.623 19.414C299.207 19.414 298.043 19.084 297.131 18.424C296.231 17.764 295.721 16.864 295.601 15.724H298.103C298.235 16.18 298.517 16.54 298.949 16.804C299.393 17.08 299.927 17.218 300.551 17.218C301.283 17.218 301.877 16.996 302.333 16.552C302.789 16.12 303.017 15.46 303.017 14.572V13.024C302.693 13.492 302.243 13.882 301.667 14.194C301.103 14.506 300.455 14.662 299.723 14.662C298.883 14.662 298.115 14.446 297.419 14.014C296.723 13.582 296.171 12.976 295.763 12.196C295.367 11.404 295.169 10.498 295.169 9.478C295.169 8.47 295.367 7.576 295.763 6.796C296.171 6.016 296.717 5.416 297.401 4.996C298.097 4.576 298.871 4.366 299.723 4.366ZM303.017 9.514C303.017 8.902 302.897 8.38 302.657 7.948C302.417 7.504 302.093 7.168 301.685 6.94C301.277 6.7 300.839 6.58 300.371 6.58C299.903 6.58 299.471 6.694 299.075 6.922C298.679 7.15 298.355 7.486 298.103 7.93C297.863 8.362 297.743 8.878 297.743 9.478C297.743 10.078 297.863 10.606 298.103 11.062C298.355 11.506 298.679 11.848 299.075 12.088C299.483 12.328 299.915 12.448 300.371 12.448C300.839 12.448 301.277 12.334 301.685 12.106C302.093 11.866 302.417 11.53 302.657 11.098C302.897 10.654 303.017 10.126 303.017 9.514Z" fill="#2302F5"/>
</svg>
