<svg width="101" height="26" viewBox="0 0 101 26" fill="none" xmlns="http://www.w3.org/2000/svg">
<path d="M15.9783 19.9921L15.9532 9.69458L10.786 18.1777H8.95485L3.81271 9.91524V19.9921H0V2.82959H3.3612L9.93311 13.4948L16.4047 2.82959H19.7408L19.791 19.9921H15.9783Z" fill="#1D1D1D"/>
<path d="M26.6723 6.80151H22.7593V19.9921H26.6723V6.80151Z" fill="#1D1D1D"/>
<path d="M38.5118 19.3545C37.7091 19.9184 36.5302 20.1881 35.3261 20.1881C32.1405 20.1881 30.2843 18.5945 30.2843 15.4562V10.0378H28.2024V7.09562H30.2843V5.10968L34.1974 3.88379V7.09562H37.5586V10.0378H34.1974V15.4072C34.1974 16.535 34.8245 17.1479 35.878 17.1479C36.4549 17.1479 37.0318 16.9763 37.4582 16.6576L38.5118 19.3545Z" fill="#1D1D1D"/>
<path d="M53.4614 5.57568V17.7856C53.4614 22.6891 50.7523 24.9448 45.8861 24.9448C43.3276 24.9448 40.8443 24.3318 39.264 23.1304L40.8192 20.3844C41.9731 21.2916 43.8543 21.88 45.5851 21.88C48.3443 21.88 49.5483 20.6541 49.5483 18.2759V17.712C48.5199 18.8153 47.04 19.3547 45.2841 19.3547C41.5467 19.3547 38.5366 16.8294 38.5366 12.9801C38.5366 9.13077 41.5467 6.60543 45.2841 6.60543C47.1654 6.60543 48.7206 7.21838 49.749 8.4933V6.80157L53.4614 5.57568V5.57568ZM49.5985 12.9801C49.5985 11.0432 48.1186 9.74371 46.0617 9.74371C44.0048 9.74371 42.4998 11.0432 42.4998 12.9801C42.4998 14.917 44.0048 16.2164 46.0617 16.2164C48.1186 16.2164 49.5985 14.917 49.5985 12.9801V12.9801Z" fill="#1D1D1D"/>
<path d="M55.1755 13.3969C55.1755 9.42502 58.311 6.60547 62.6003 6.60547C66.8896 6.60547 70 9.42502 70 13.3969C70 17.3688 66.8896 20.1883 62.6003 20.1883C58.311 20.1883 55.1755 17.3688 55.1755 13.3969V13.3969ZM66.0367 13.3969C66.0367 11.1167 64.5568 9.74375 62.6003 9.74375C60.6438 9.74375 59.1388 11.1167 59.1388 13.3969C59.1388 15.6771 60.6438 17.0501 62.6003 17.0501C64.5568 17.0501 66.0367 15.6771 66.0367 13.3969Z" fill="#1D1D1D"/>
<path d="M24.7158 4.97494C25.928 4.97494 26.9106 4.01446 26.9106 2.82964C26.9106 1.64481 25.928 0.684326 24.7158 0.684326C23.5036 0.684326 22.521 1.64481 22.521 2.82964C22.521 4.01446 23.5036 4.97494 24.7158 4.97494Z" fill="#1D1D1D"/>
<path d="M80.1 20H82.1V6H80.1V20ZM86.2914 20H92.1914C96.6914 20 99.7514 17.16 99.7514 13C99.7514 8.84 96.6914 6 92.1914 6H86.2914V20ZM88.2914 18.26V7.74H92.0714C95.5314 7.74 97.7514 9.86 97.7514 13C97.7514 16.14 95.5314 18.26 92.0714 18.26H88.2914Z" fill="#B5B8BB"/>
</svg>
