<?xml version="1.0" standalone="no"?>
<!DOCTYPE svg PUBLIC "-//W3C//DTD SVG 20010904//EN"
 "http://www.w3.org/TR/2001/REC-SVG-20010904/DTD/svg10.dtd">
<svg version="1.0" xmlns="http://www.w3.org/2000/svg"
 width="700.000000pt" height="700.000000pt" viewBox="0 0 700.000000 700.000000"
 preserveAspectRatio="xMidYMid meet">
<metadata>
Created by potrace 1.14, written by Peter Selinger 2001-2017
</metadata>
<g transform="translate(0.000000,700.000000) scale(0.100000,-0.100000)"
fill="#000000" stroke="none">
<path d="M3290 5509 c-294 -34 -596 -135 -835 -279 -436 -264 -743 -682 -869
-1186 -122 -488 -69 -1051 138 -1479 198 -406 554 -746 966 -919 242 -103 490
-154 781 -163 210 -6 352 5 532 43 702 148 1275 697 1452 1391 24 95 25 108
25 446 l0 347 -1070 0 -1070 0 0 -300 0 -300 675 0 675 0 0 -24 c0 -38 -64
-224 -105 -307 -74 -147 -161 -258 -272 -349 -199 -161 -427 -233 -738 -233
-243 0 -419 38 -599 131 -356 183 -575 519 -627 962 -16 145 -6 415 21 543
131 616 611 985 1240 953 356 -18 629 -161 807 -422 l57 -84 453 0 454 0 -6
23 c-19 63 -82 212 -122 287 -172 321 -438 570 -785 734 -285 135 -586 197
-938 195 -91 -1 -199 -5 -240 -10z"/>
</g>
</svg>
