<?xml version="1.0" standalone="no"?>
<!DOCTYPE svg PUBLIC "-//W3C//DTD SVG 20010904//EN"
 "http://www.w3.org/TR/2001/REC-SVG-20010904/DTD/svg10.dtd">
<svg version="1.0" xmlns="http://www.w3.org/2000/svg"
 width="700.000000pt" height="700.000000pt" viewBox="0 0 700.000000 700.000000"
 preserveAspectRatio="xMidYMid meet">
<metadata>
Created by potrace 1.14, written by Peter Selinger 2001-2017
</metadata>
<g transform="translate(0.000000,700.000000) scale(0.100000,-0.100000)"
fill="#000000" stroke="none">
<path d="M940 6985 c-382 -61 -720 -332 -859 -689 -83 -212 -75 57 -78 -2749
-3 -2169 -1 -2511 12 -2597 71 -481 453 -862 935 -935 144 -22 4957 -22 5103
0 479 72 859 453 932 935 22 142 22 4958 0 5100 -54 360 -283 673 -609 833
-112 55 -202 84 -326 102 -137 21 -4979 20 -5110 0z m1924 -2822 c358 -595
653 -1082 656 -1082 3 0 293 487 646 1082 l641 1082 336 3 337 2 2 -1750 3
-1750 -382 0 -383 0 -2 1046 -3 1045 -511 -858 -511 -858 -184 -3 -184 -2
-510 838 -510 839 -3 -1024 -2 -1023 -380 0 -380 0 0 1750 0 1750 337 -2 336
-3 651 -1082z"/>
</g>
</svg>
